<svg width="24" height="24" viewBox="0 0 24 24" fill="none" xmlns="http://www.w3.org/2000/svg">
<path d="M1.71484 12.0001L12.0006 1.71436L22.2863 12.0001" stroke="#737373" stroke-width="1.5" stroke-linecap="round" stroke-linejoin="round"/>
<path d="M4 9.71436V18.8572C4 19.1603 4.12041 19.451 4.33474 19.6653C4.54906 19.8797 4.83975 20.0001 5.14286 20.0001H8.57143C8.87453 20.0001 9.16522 19.8797 9.37955 19.6653C9.59388 19.451 9.71429 19.1603 9.71429 18.8572V14.2858C9.71429 13.9827 9.83469 13.692 10.049 13.4777C10.2633 13.2633 10.554 13.1429 10.8571 13.1429H13.1429C13.446 13.1429 13.7367 13.2633 13.951 13.4777C14.1653 13.692 14.2857 13.9827 14.2857 14.2858V18.8572C14.2857 19.1603 14.4061 19.451 14.6205 19.6653C14.8348 19.8797 15.1255 20.0001 15.4286 20.0001H18.8571C19.1602 20.0001 19.4509 19.8797 19.6653 19.6653C19.8796 19.451 20 19.1603 20 18.8572V9.71436" stroke="#737373" stroke-width="1.5" stroke-linecap="round" stroke-linejoin="round"/>
</svg>
