<svg width="20" height="20" viewBox="0 0 20 20" fill="none" xmlns="http://www.w3.org/2000/svg">
<g opacity="0.5">
<path d="M14.9998 12.5V15H11.6665V12.5H14.9998Z" stroke="#141B34" stroke-width="1.5" stroke-linecap="round" stroke-linejoin="round"/>
<path d="M7.50016 2.08337H3.75016C2.82969 2.08337 2.0835 2.82957 2.0835 3.75004V7.50004M12.5002 2.08337H16.2502C17.1707 2.08337 17.9168 2.82957 17.9168 3.75004V7.50004M12.5002 17.9167H16.2502C17.1707 17.9167 17.9168 17.1705 17.9168 16.25V12.5M7.50016 17.9167H3.75016C2.82969 17.9167 2.0835 17.1705 2.0835 16.25V12.5" stroke="#141B34" stroke-width="1.5" stroke-linecap="round" stroke-linejoin="round"/>
<path d="M10.8333 5V10.8333H5" stroke="#141B34" stroke-width="1.5" stroke-linecap="round" stroke-linejoin="round"/>
<path d="M8.33333 5V8.33333H5V5H8.33333Z" stroke="#141B34" stroke-width="1.5" stroke-linecap="round" stroke-linejoin="round"/>
<path d="M5 15H9.16667" stroke="#141B34" stroke-width="1.5" stroke-linecap="round" stroke-linejoin="round"/>
<path d="M14.1665 8.75V10" stroke="#141B34" stroke-width="1.5" stroke-linecap="round" stroke-linejoin="round"/>
<path d="M14.1665 5V6.25" stroke="#141B34" stroke-width="1.5" stroke-linecap="round" stroke-linejoin="round"/>
</g>
</svg>
