<svg width="20" height="20" viewBox="0 0 20 20" fill="none" xmlns="http://www.w3.org/2000/svg">
<path d="M9.89286 19.0357C14.9423 19.0357 19.0357 14.9423 19.0357 9.89286C19.0357 4.8434 14.9423 0.75 9.89286 0.75C4.8434 0.75 0.75 4.8434 0.75 9.89286C0.75 14.9423 4.8434 19.0357 9.89286 19.0357Z" stroke="#737373" stroke-width="1.5" stroke-linecap="round" stroke-linejoin="round"/>
<path d="M9.89369 14.4644C12.4184 14.4644 14.4651 12.4177 14.4651 9.89296C14.4651 7.36823 12.4184 5.32153 9.89369 5.32153C7.36896 5.32153 5.32227 7.36823 5.32227 9.89296C5.32227 12.4177 7.36896 14.4644 9.89369 14.4644Z" stroke="#737373" stroke-width="1.5" stroke-linecap="round" stroke-linejoin="round"/>
<path d="M13.3217 6.46432L16.1788 3.60718M13.3217 13.3215L16.1788 16.1786M6.46456 13.3215L3.60742 16.1786M6.46456 6.46432L3.60742 3.60718" stroke="#737373" stroke-width="1.5" stroke-linecap="round" stroke-linejoin="round"/>
</svg>
